<svg id="visual" viewBox="0 0 900 600" width="900" height="600" xmlns="http://www.w3.org/2000/svg" xmlns:xlink="http://www.w3.org/1999/xlink" version="1.1"><rect x="0" y="0" width="900" height="600" fill="#121528"></rect><g transform="translate(885.4475360190386 28.02082947557554)"><path d="M177.3 -274.9C231.2 -204.9 277.3 -155 323.5 -87.5C369.6 -20 415.9 65.1 396 129.4C376.1 193.7 290 237.2 213 287C136 336.8 68 392.9 8.3 381.5C-51.4 370.1 -102.9 291.3 -174 239.5C-245.2 187.8 -336.1 163.3 -362.7 110.9C-389.3 58.5 -351.6 -21.7 -314.1 -91.2C-276.6 -160.8 -239.4 -219.5 -187.1 -290C-134.8 -360.5 -67.4 -442.8 -2.8 -438.9C61.7 -434.9 123.4 -344.9 177.3 -274.9" fill="#feb400"></path></g></svg>
