<svg id="visual" viewBox="0 0 900 600" width="900" height="600" xmlns="http://www.w3.org/2000/svg" xmlns:xlink="http://www.w3.org/1999/xlink" version="1.1"><rect x="0" y="0" width="900" height="600" fill="#121528"></rect><g transform="translate(877.6769273556133 -26.274523721937555)"><path d="M221.7 -287.4C295.2 -251.7 368.3 -197.5 413.3 -119.9C458.4 -42.2 475.5 58.9 431.4 123.3C387.2 187.6 281.8 215.2 199.7 261.5C117.6 307.8 58.8 372.9 -12.2 389.8C-83.3 406.6 -166.5 375.2 -208.1 315.7C-249.8 256.3 -249.7 168.7 -291.3 84.3C-332.9 0 -416.1 -81.1 -412.3 -146.7C-408.5 -212.2 -317.7 -262.3 -234.5 -294.9C-151.3 -327.5 -75.6 -342.8 -0.8 -341.7C74.1 -340.6 148.1 -323.2 221.7 -287.4" fill="#feb400"></path></g></svg>