<svg id="visual" viewBox="0 0 900 600" width="900" height="600" xmlns="http://www.w3.org/2000/svg" xmlns:xlink="http://www.w3.org/1999/xlink" version="1.1"><rect x="0" y="0" width="900" height="600" fill="#001220"></rect><defs><linearGradient id="grad1_0" x1="33.3%" y1="0%" x2="100%" y2="100%"><stop offset="20%" stop-color="#001220" stop-opacity="1"></stop><stop offset="80%" stop-color="#001220" stop-opacity="1"></stop></linearGradient></defs><defs><linearGradient id="grad2_0" x1="0%" y1="0%" x2="66.7%" y2="100%"><stop offset="20%" stop-color="#001220" stop-opacity="1"></stop><stop offset="80%" stop-color="#001220" stop-opacity="1"></stop></linearGradient></defs><g transform="translate(900, 0)"><path d="M0 216.3C-27.1 212.7 -54.2 209.1 -82.8 199.9C-111.3 190.6 -141.3 175.8 -151.3 151.3C-161.3 126.8 -151.4 92.7 -158.9 65.8C-166.4 39 -191.4 19.5 -216.3 0L0 0Z" fill="#FBAE3C"></path></g><g transform="translate(0, 600)"><path d="M0 -216.3C27.5 -213.7 55.1 -211 82.8 -199.9C110.5 -188.8 138.3 -169.2 142.1 -142.1C145.9 -115 125.6 -80.4 134 -55.5C142.3 -30.5 179.3 -15.3 216.3 0L0 0Z" fill="#FBAE3C"></path></g></svg>