<svg id="visual" viewBox="0 0 900 600" width="900" height="600" xmlns="http://www.w3.org/2000/svg" xmlns:xlink="http://www.w3.org/1999/xlink" version="1.1"><rect x="0" y="0" width="900" height="600" fill="#121528"></rect><g transform="translate(991.7055653947217 24.270457545388354)"><path d="M237.5 -370.7C279 -296.7 264.1 -188.8 269.8 -103.6C275.5 -18.4 301.8 44.1 296.5 107.5C291.2 170.9 254.4 235.1 199.7 301.5C145 367.9 72.5 436.4 10.5 422C-51.4 407.5 -102.9 309.9 -185.1 252.5C-267.4 195 -380.5 177.7 -436.9 115.6C-493.3 53.6 -493 -53.3 -448.2 -131.6C-403.5 -210 -314.3 -259.9 -232.2 -320.7C-150.1 -381.6 -75 -453.3 11.5 -469.1C98 -484.8 195.9 -444.7 237.5 -370.7" fill="#feb400"></path></g></svg>