<svg id="visual" viewBox="0 0 900 600" width="900" height="600" xmlns="http://www.w3.org/2000/svg" xmlns:xlink="http://www.w3.org/1999/xlink" version="1.1"><rect x="0" y="0" width="900" height="600" fill="#121528"></rect><g transform="translate(863.6682290091037 31.90616415373171)"><path d="M261.3 -366.9C336.2 -305.3 392.5 -225.6 429.1 -134.4C465.7 -43.2 482.5 59.5 445.2 135.5C407.9 211.4 316.5 260.6 233.3 313.1C150.1 365.6 75 421.3 11.8 405C-51.4 388.8 -102.9 300.6 -178.3 245.6C-253.8 190.6 -353.2 168.9 -383 115.4C-412.8 62 -372.8 -23.1 -344 -111.8C-315.2 -200.5 -297.5 -292.8 -242 -360.6C-186.5 -428.4 -93.3 -471.7 0 -471.7C93.3 -471.7 186.5 -428.4 261.3 -366.9" fill="#feb400"></path></g></svg>