<svg id="visual" viewBox="0 0 900 600" width="900" height="600" xmlns="http://www.w3.org/2000/svg" xmlns:xlink="http://www.w3.org/1999/xlink" version="1.1"><rect x="0" y="0" width="900" height="600" fill="#121528"></rect><g transform="translate(910.0477117713016 22.22784057500934)"><path d="M177.5 -251.2C277.9 -171.5 439.9 -183.5 493.7 -133.2C547.5 -82.9 493 29.8 409.2 85.1C325.4 140.5 212.3 138.5 139.2 227.3C66.1 316 33.1 495.5 -10.8 510.4C-54.7 525.2 -109.3 375.5 -196.8 291.4C-284.3 207.3 -404.7 189 -471.6 120.7C-538.6 52.4 -552.2 -65.7 -514.8 -163C-477.4 -260.4 -388.9 -336.9 -294.6 -418.6C-200.2 -500.3 -100.1 -587.1 -30.8 -544.8C38.6 -502.5 77.2 -330.9 177.5 -251.2" fill="#feb400"></path></g></svg>